FFmpeg version SVN-r25716, Copyright (c) 2000-2010 the FFmpeg developers  built on Nov 10 2010 12:23:18 with gcc 4.1.2 20080704 (Red Hat 4.1.2-48)  configuration: --enable-libmp3lame --enable-shared --disable-mmx --arch=x86_64  libavutil     50.33. 0 / 50.33. 0  libavcore      0.12. 1 /  0.12. 1  libavcodec    52.94. 4 / 52.94. 4  libavformat   52.84. 0 / 52.84. 0  libavdevice   52. 2. 2 / 52. 2. 2  libavfilter    1.59. 0 /  1.59. 0  libswscale     0.12. 0 /  0.12. 0Input #0, avi, from '/RAID10/data/converted_video_files/11944.avi':  Duration: 00:00:49.44, start: 0.000000, bitrate: 4874 kb/s    Stream #0.0: Video: mpeg4, yuv420p, 720x480 [PAR 1:1 DAR 3:2], 25 tbr, 29.97 tbn, 25 tbc[buffer @ 0xac6ed40] w:720 h:480 pixfmt:yuv420pOutput #0, flv, to '/RAID10/data/converted_video_files/11944.flv':  Metadata:    encoder         : Lavf52.84.0    Stream #0.0: Video: flv, yuv420p, 720x480 [PAR 1:1 DAR 3:2], q=2-31, 600 kb/s, 1k tbn, 24 tbcStream mapping:  Stream #0.0 -> #0.0Press [q] to stop encodingframe=   34 fps=  0 q=7.2 size=     216kB time=1.46 bitrate=1213.4kbits/s dup=0 drop=8    frame=   77 fps= 75 q=8.8 size=     376kB time=3.25 bitrate= 948.5kbits/s dup=0 drop=19    frame=  110 fps= 71 q=8.6 size=     488kB time=4.62 bitrate= 863.9kbits/s dup=0 drop=27    frame=  138 fps= 67 q=8.3 size=     574kB time=5.79 bitrate= 811.7kbits/s dup=0 drop=34    frame=  184 fps= 71 q=11.3 size=     733kB time=7.71 bitrate= 778.7kbits/s dup=0 drop=46    frame=  218 fps= 71 q=9.1 size=     838kB time=9.12 bitrate= 752.3kbits/s dup=0 drop=54    frame=  251 fps= 70 q=8.2 size=     931kB time=10.50 bitrate= 726.6kbits/s dup=0 drop=62    frame=  299 fps= 73 q=7.6 size=    1075kB time=12.50 bitrate= 704.9kbits/s dup=0 drop=74    frame=  345 fps= 75 q=9.0 size=    1225kB time=14.42 bitrate= 695.8kbits/s dup=0 drop=86    frame=  391 fps= 77 q=9.3 size=    1370kB time=16.33 bitrate= 686.9kbits/s dup=0 drop=97    frame=  429 fps= 77 q=11.1 size=    1528kB time=17.92 bitrate= 698.7kbits/s dup=0 drop=107    frame=  469 fps= 77 q=8.5 size=    1632kB time=19.58 bitrate= 682.5kbits/s dup=0 drop=116    frame=  516 fps= 78 q=9.9 size=    1765kB time=21.54 bitrate= 671.3kbits/s dup=0 drop=128    frame=  564 fps= 79 q=8.7 size=    1901kB time=23.54 bitrate= 661.6kbits/s dup=0 drop=140    frame=  606 fps= 80 q=8.8 size=    2020kB time=25.29 bitrate= 654.2kbits/s dup=0 drop=150    frame=  653 fps= 80 q=8.8 size=    2163kB time=27.25 bitrate= 650.2kbits/s dup=0 drop=162    frame=  696 fps= 81 q=8.7 size=    2300kB time=29.04 bitrate= 648.7kbits/s dup=0 drop=173    frame=  739 fps= 81 q=9.2 size=    2449kB time=30.83 bitrate= 650.7kbits/s dup=0 drop=184    frame=  775 fps= 80 q=10.8 size=    2613kB time=32.33 bitrate= 662.0kbits/s dup=0 drop=193    frame=  809 fps= 80 q=7.4 size=    2700kB time=33.75 bitrate= 655.5kbits/s dup=0 drop=201    frame=  855 fps= 80 q=10.0 size=    2822kB time=35.67 bitrate= 648.2kbits/s dup=0 drop=212    frame=  887 fps= 79 q=10.7 size=    2917kB time=37.00 bitrate= 645.8kbits/s dup=0 drop=220    frame=  909 fps= 78 q=9.7 size=    2981kB time=37.92 bitrate= 644.0kbits/s dup=0 drop=226    frame=  946 fps= 78 q=9.8 size=    3083kB time=39.46 bitrate= 640.1kbits/s dup=0 drop=235    frame=  991 fps= 78 q=8.3 size=    3219kB time=41.33 bitrate= 637.9kbits/s dup=0 drop=246    frame= 1021 fps= 77 q=8.4 size=    3302kB time=42.58 bitrate= 635.2kbits/s dup=0 drop=254    frame= 1061 fps= 77 q=6.7 size=    3426kB time=44.25 bitrate= 634.3kbits/s dup=0 drop=264    frame= 1095 fps= 77 q=8.6 size=    3520kB time=45.67 bitrate= 631.5kbits/s dup=0 drop=272    frame= 1140 fps= 77 q=9.7 size=    3680kB time=47.54 bitrate= 634.1kbits/s dup=0 drop=283    frame= 1184 fps= 78 q=9.7 size=    3853kB time=49.37 bitrate= 639.3kbits/s dup=0 drop=294    frame= 1187 fps= 78 q=9.1 Lsize=    3857kB time=49.50 bitrate= 638.3kbits/s dup=0 drop=295    video:3838kB audio:0kB global headers:0kB muxing overhead 0.488552%